<svg xmlns="http://www.w3.org/2000/svg" width="800" height="800" viewBox="0 0 800 800" role="img" aria-label="Stylized portrait card for Ada Lovelace">
  <defs>
    <linearGradient id="bg" x1="0" y1="0" x2="1" y2="1">
      <stop offset="0%" stop-color="#243b53"/>
      <stop offset="100%" stop-color="#102a43"/>
    </linearGradient>
    <linearGradient id="accent" x1="0" y1="0" x2="1" y2="1">
      <stop offset="0%" stop-color="#f6ad55"/>
      <stop offset="100%" stop-color="#ed8936"/>
    </linearGradient>
  </defs>
  <rect width="800" height="800" rx="40" fill="url(#bg)"/>
  <circle cx="400" cy="270" r="140" fill="#f2c9a0"/>
  <path d="M260 250c20-120 260-120 280 0 10 55-10 90-20 120-30-30-60-42-120-42s-90 12-120 42c-10-30-30-65-20-120z" fill="#1f2937"/>
  <path d="M300 345c30 65 75 105 100 105s70-40 100-105c0 0-30 20-100 20s-100-20-100-20z" fill="#f2c9a0"/>
  <rect x="170" y="540" width="460" height="180" rx="28" fill="url(#accent)"/>
  <text x="400" y="615" text-anchor="middle" font-family="Arial, sans-serif" font-size="54" font-weight="700" fill="#102a43">Ada Lovelace</text>
  <text x="400" y="670" text-anchor="middle" font-family="Arial, sans-serif" font-size="24" fill="#102a43">Mathematician and early programmer</text>
</svg>
